<svg width="148" height="70" viewBox="0 0 148 70" fill="none" xmlns="http://www.w3.org/2000/svg">
<path d="M33.3167 26.0143C37.6283 26.0143 39.3114 28.0055 39.3114 30.5755C39.3114 32.011 38.6658 33.2613 37.1902 34.0485C39.0578 34.8357 39.8187 36.2712 39.8187 37.9383C39.8187 40.6935 38.0894 42.6847 33.6395 42.6847H27.3912V26.0143H33.3167ZM30.0427 28.4686V33.0066H33.3167C35.8299 33.0066 36.683 31.9879 36.683 30.7607C36.683 29.4179 35.8068 28.4686 33.3167 28.4686H30.0427ZM30.0427 35.2988V40.2304H33.6626C36.3141 40.2304 37.2133 39.258 37.2133 37.7762C37.2133 36.3638 36.3141 35.3219 33.6626 35.3219H30.0427V35.2988ZM42.2857 24.7178H44.8219V38.4476C44.8219 40.0221 45.2831 40.4851 45.9286 40.4851C46.3667 40.4851 46.5742 40.4157 46.8279 40.2767L47.5657 42.5226C47.0123 42.731 46.459 42.8699 45.6059 42.8699C43.7383 42.8699 42.3088 41.7354 42.3088 38.4245V24.7178H42.2857ZM59.8548 42.2679C58.3331 42.6847 56.7422 42.9394 54.5518 42.9394C51.4161 42.9394 49.1105 41.3649 49.1105 37.3826V29.8578H51.6467V37.5447C51.6467 39.9294 52.8687 40.5083 54.7362 40.5083C55.9352 40.5083 56.6038 40.462 57.3186 40.2767V29.8578H59.8779V42.2679H59.8548ZM73.7348 37.2437H65.0656V37.3363C65.0656 39.4201 66.449 40.5083 68.6855 40.5083C70.2994 40.5083 71.8212 40.2304 72.7204 39.86L73.4582 42.1522C72.167 42.6384 70.53 42.9162 68.6855 42.9162C64.8581 42.9162 62.4602 41.0176 62.4602 36.5028V35.9702C62.4602 31.4785 64.6506 29.5799 68.109 29.5799C71.5214 29.5799 73.7348 31.4785 73.7348 35.9702V37.2437ZM65.0886 35.2988H71.1295V35.1599C71.1295 33.0066 69.9536 32.011 68.109 32.011C66.2645 32.011 65.0656 33.0066 65.0656 35.1599V35.2988H65.0886ZM81.7585 36.2249V42.6847H79.107V36.2712L72.7434 26.0143H75.7408L80.4443 33.817L85.1248 26.0143H88.1221L81.7585 36.2249ZM86.5312 36.0628C86.5312 31.4785 88.9522 29.6031 92.2723 29.6031C95.5694 29.6031 98.0134 31.4785 98.0134 36.0628V36.4796C98.0134 41.0639 95.5694 42.9394 92.2723 42.9394C88.9522 42.9394 86.5312 41.0639 86.5312 36.4796V36.0628ZM95.4541 36.0628C95.4541 32.9835 94.2782 32.011 92.2954 32.011C90.2664 32.011 89.1136 32.9835 89.1136 36.0628V36.4796C89.1136 39.559 90.2895 40.5314 92.2954 40.5314C94.2782 40.5314 95.4541 39.559 95.4541 36.4796V36.0628ZM100.55 30.2745C101.749 29.8809 103.685 29.6031 105.83 29.6031C108.965 29.6031 111.294 31.1775 111.294 35.1599V42.6847H108.758V34.9978C108.758 32.613 107.536 32.0342 105.668 32.0342C104.446 32.0342 103.87 32.0805 103.063 32.2657V42.7078H100.527V30.2745H100.55ZM124.367 42.2679C122.891 42.7541 120.77 42.9394 119.525 42.9394C116.021 42.9394 113.623 40.8556 113.623 36.5259V36.0165C113.623 31.5711 116.159 29.6031 119.594 29.6031C120.447 29.6031 121.231 29.742 121.831 29.9967V24.7409H124.367V42.2679ZM116.182 36.5259C116.182 39.6516 117.496 40.5314 119.594 40.5314C120.609 40.5314 121.185 40.462 121.831 40.2767V32.4509C121.508 32.2657 120.793 32.011 119.756 32.011C117.635 32.011 116.159 32.8214 116.159 36.0165V36.5259H116.182ZM138.201 37.2437H129.532V37.3363C129.532 39.4201 130.915 40.5083 133.152 40.5083C134.766 40.5083 136.287 40.2304 137.186 39.86L137.924 42.1522C136.633 42.6384 134.996 42.9162 133.152 42.9162C129.324 42.9162 126.926 41.0176 126.926 36.5028V35.9702C126.926 31.4785 129.117 29.5799 132.575 29.5799C135.988 29.5799 138.201 31.4785 138.201 35.9702V37.2437ZM129.601 35.2988H135.665V35.1599C135.665 33.0066 134.489 32.011 132.644 32.011C130.8 32.011 129.601 33.0066 129.601 35.1599V35.2988ZM140.829 30.2745C141.913 29.8809 143.619 29.6262 145.118 29.6262C146.34 29.6262 147.147 29.7652 148 29.9504L147.239 32.2889C146.709 32.1268 146.109 32.0342 145.279 32.0342C144.311 32.0342 143.827 32.1268 143.366 32.2426V42.6847H140.829V30.2745ZM10.4677 24C8.66926 24 7.23976 25.4587 7.23976 27.2415C7.23976 29.0474 8.69232 30.4829 10.4677 30.4829C12.2661 30.4829 13.6956 29.0243 13.6956 27.2415C13.6956 25.4587 12.243 24 10.4677 24ZM10.4677 45C12.2661 45 13.6956 43.5413 13.6956 41.7585C13.6956 39.9526 12.243 38.5171 10.4677 38.5171C8.66926 38.5171 7.23976 39.9757 7.23976 41.7585C7.23976 43.5413 8.66926 45 10.4677 45ZM11.1594 34.4884C11.1594 34.8126 11.3438 35.0904 11.6205 35.2062L16.324 37.4289C16.7391 37.6373 17.2002 37.7299 17.7074 37.7299C19.5058 37.7299 20.9353 36.2712 20.9353 34.4884C20.9353 32.6825 19.4828 31.247 17.7074 31.247C17.2232 31.247 16.7391 31.3627 16.324 31.548L11.6205 33.7707C11.3438 33.8864 11.1594 34.1643 11.1594 34.4884ZM9.77598 34.4884C9.77598 34.1643 9.59153 33.8864 9.31485 33.7707L4.61131 31.548C4.19629 31.3396 3.73516 31.247 3.22792 31.247C1.42951 31.247 0 32.7056 0 34.4884C0 36.2944 1.45256 37.7299 3.22792 37.7299C3.7121 37.7299 4.19629 37.6141 4.61131 37.4289L9.31485 35.2062C9.59153 35.0904 9.77598 34.8126 9.77598 34.4884Z" fill="#00B7F1"/>
</svg>
