<?xml version="1.0" encoding="UTF-8"?>
<svg id="Layer_1" xmlns="http://www.w3.org/2000/svg" xmlns:xlink="http://www.w3.org/1999/xlink" version="1.1" viewBox="0 0 252 108">
  <!-- Generator: Adobe Illustrator 29.5.1, SVG Export Plug-In . SVG Version: 2.1.0 Build 141)  -->
  <defs>
    <style>
      .st0 {
        fill: none;
      }

      .st1 {
        fill: url(#linear-gradient1);
      }

      .st2 {
        fill: url(#linear-gradient);
      }

      .st3 {
        fill: #fff;
      }

      .st4 {
        clip-path: url(#clippath);
      }
    </style>
    <clipPath id="clippath">
      <path class="st0" d="M42.8,73c-1.1,2.3-2.4,3.6-2.4,3.6,0-1.5,0-2.9-.2-4.3-1.3-12.5-8.4-19.3-8.6-19.5,4.2,7.4,5.6,13.7,6,18.4.2,2.1,0,3.9,0,5.2-.2,2-.6,3.1-.6,3.2h0s-.2-1.4-.9-3.5c-1-3.1-3.1-7.7-7.1-11.8-5-5.1-7.4-10.7-7.4-14.1,0-2.8.2-5.4.9-7.7,2.4-9.1,9.1-13.9,9.1-13.9,0,0-.3,2.2,0,5.4.2,2.2.7,4.8,1.7,7.5,1,2.9,2.6,5.9,5.1,8.6,8.5,9.9,6.7,18.2,4.5,22.7Z"/>
    </clipPath>
    <linearGradient id="linear-gradient" x1="49.9" y1="79.5" x2="7.3" y2="10.6" gradientUnits="userSpaceOnUse">
      <stop offset="0" stop-color="#10572e"/>
      <stop offset=".5" stop-color="#33a949"/>
      <stop offset="1" stop-color="#78c143"/>
    </linearGradient>
    <linearGradient id="linear-gradient1" x1="30.1" y1="81.9" x2="30.1" y2="20.5" gradientUnits="userSpaceOnUse">
      <stop offset="0" stop-color="#10572e"/>
      <stop offset=".5" stop-color="#33a949"/>
      <stop offset="1" stop-color="#78c143"/>
    </linearGradient>
  </defs>
  <g>
    <path d="M112.5,57.4c-.1.5-.2,1-.3,1.5-1.9,1-4.3,1.4-7.2,1.4s-3.9-.3-5.5-.9c-1.6-.6-3-1.4-4.1-2.4-1.1-1-2-2.3-2.6-3.7-.6-1.4-.9-3-.9-4.7,0-2.4.4-4.5,1.1-6.2.8-1.7,1.8-3.1,3.1-4.2,1.3-1.1,2.8-1.9,4.5-2.3,1.7-.5,3.5-.7,5.3-.7s1.3,0,1.9.1c.7,0,1.3.2,2,.4.6.2,1.2.3,1.8.5.6.2,1.1.4,1.5.7-.2.6-.4,1.2-.5,1.8-.1.6-.2,1.2-.3,1.8h-.5c-.9-1.1-1.8-1.9-2.8-2.4-.9-.5-2.1-.7-3.3-.7s-1.9.2-2.8.6c-1,.4-1.8,1.1-2.6,1.9-.8.9-1.4,2-1.9,3.3-.5,1.4-.7,3-.7,4.9s.2,3.4.7,4.6c.5,1.3,1.1,2.3,1.9,3.1.8.8,1.7,1.4,2.7,1.8,1,.4,2,.6,3,.6s1.1,0,1.7-.2c.6-.1,1.2-.3,1.7-.5.6-.2,1.1-.5,1.6-.8.5-.3.9-.7,1.3-1.1l.5.3c-.2.5-.4,1-.5,1.5Z"/>
    <path d="M119.4,40.2c0-1.5-.1-3-.2-4.6.4,0,.8,0,1.3.1.5,0,1,0,1.6,0s1.1,0,1.6,0c.5,0,.9,0,1.3-.1,0,1.5-.2,3.1-.2,4.6,0,1.5,0,3.3,0,5.2v4.8c0,1.3,0,2.6,0,3.9,0,1.2,0,2.3,0,3.3,1.3,0,2.7,0,4-.1,1.3,0,2.7-.2,4.1-.4,0,.3,0,.5-.1.7,0,.2,0,.5,0,.9s0,.7,0,.9c0,.2,0,.4.1.5-.6,0-1.4,0-2.3,0-.9,0-2.2,0-3.8,0h-5.6c-.5,0-.9,0-1.2,0-.3,0-.5,0-.7,0,0-1.5.2-3,.2-4.5,0-1.5,0-3.3,0-5.2v-4.8c0-2,0-3.7,0-5.2Z"/>
    <path d="M138.3,42.9c.6-1.5,1.6-2.9,2.7-4,1.2-1.2,2.6-2.1,4.3-2.7,1.7-.7,3.5-1,5.6-1s3.6.3,5.3.8c1.6.5,3,1.3,4.2,2.3,1.2,1,2.1,2.4,2.8,3.9.7,1.6,1,3.4,1,5.6s-.3,3.4-1,4.9c-.7,1.5-1.6,2.9-2.8,4-1.2,1.1-2.6,2-4.3,2.7-1.6.6-3.5,1-5.4,1s-3.6-.2-5.2-.7c-1.6-.5-3.1-1.2-4.3-2.2-1.2-1-2.2-2.3-2.9-3.9-.7-1.6-1.1-3.5-1.1-5.7s.3-3.4,1-4.9ZM157.9,42.9c-.4-1.2-.9-2.2-1.6-3.1-.7-.8-1.5-1.5-2.4-2-1-.5-2-.7-3.1-.7s-2.3.3-3.2.9c-1,.6-1.8,1.4-2.4,2.4-.7,1-1.2,2.1-1.5,3.5-.3,1.3-.5,2.8-.5,4.3s.2,3.5.6,4.8c.4,1.3.9,2.3,1.6,3.1.7.8,1.5,1.4,2.4,1.7.9.4,1.8.5,2.8.5s2.1-.2,3-.7c1-.4,1.8-1.1,2.5-2,.7-.9,1.3-2.1,1.7-3.5.4-1.4.7-3.1.7-5s-.2-2.9-.6-4.1Z"/>
    <path d="M183.2,44.4c1.2-3,2.2-5.9,3.1-8.7.6.1,1.1.2,1.6.2s1,0,1.6-.2c-.6,1.4-1.3,3.1-2.1,5-.8,2-1.7,4-2.6,6.2-.9,2.2-1.8,4.4-2.7,6.7-.9,2.3-1.6,4.4-2.3,6.4-.5,0-1,0-1.6,0s-1.1,0-1.6,0c-.4-.9-.8-2.1-1.3-3.4-.5-1.3-1-2.8-1.6-4.3-.6-1.5-1.2-3.1-1.8-4.6-.6-1.6-1.2-3.1-1.8-4.6-.6-1.5-1.1-2.8-1.7-4.1-.5-1.3-1-2.4-1.3-3.3.5,0,1.1,0,1.6.1.5,0,1.1,0,1.6,0s1,0,1.6,0c.5,0,1,0,1.6-.1.4,1.3.9,2.7,1.4,4.2.5,1.5,1,2.9,1.6,4.5.5,1.5,1.1,3,1.7,4.6.6,1.5,1.1,3,1.7,4.5,1.2-3,2.4-6,3.6-9Z"/>
    <path d="M194.7,40.2c0-1.5-.1-3-.2-4.6,1.1,0,2.1,0,3.1.1,1,0,2.1,0,3.1,0,1.7,0,3.3,0,4.6,0,1.4,0,2.3,0,2.7-.1,0,.4-.1.9-.1,1.5s0,.7,0,.9c0,.2,0,.4.1.7-.7,0-1.4,0-2.2-.1-.8,0-1.6,0-2.4-.1-.8,0-1.5,0-2.1-.1-.6,0-1,0-1.3,0,0,1.3-.1,2.6-.2,3.9,0,1.3,0,2.6,0,3.9,1.5,0,2.9,0,4.2-.1,1.2,0,2.5-.1,3.9-.2,0,.4-.1.7-.1.9,0,.2,0,.4,0,.7s0,.4,0,.6c0,.2,0,.5.1.9-2.7-.2-5.4-.3-8-.3,0,.8,0,1.5,0,2.3,0,.8,0,1.5,0,2.3,0,1.5,0,3,.1,4.4,1.3,0,2.7,0,4-.1,1.3,0,2.7-.2,4.1-.4,0,.3,0,.5-.1.7,0,.2,0,.5,0,.9s0,.7,0,.9c0,.2,0,.4.1.5-.6,0-1.4,0-2.3,0-.9,0-2.2,0-3.8,0h-5.6c-.5,0-.9,0-1.2,0-.3,0-.5,0-.7,0,0-1.5.1-3,.2-4.5,0-1.5,0-3.3,0-5.2v-4.8c0-2,0-3.7,0-5.2Z"/>
    <path d="M220,48.8v1.4c0,2,0,3.7,0,5.2,0,1.5.1,3,.2,4.5-.4,0-.8,0-1.3,0h-3.2c-.5,0-.9,0-1.3,0,0-1.5.2-3,.2-4.5,0-1.5,0-3.3,0-5.2v-4.8c0-2,0-3.7,0-5.2,0-1.5-.1-3-.2-4.6.4,0,.8,0,1.3.1.5,0,1,0,1.6,0s1.4,0,2.2,0c.8,0,1.8,0,3,0s1.7,0,2.3,0c.6,0,1.2.1,1.6.2.5,0,.9.2,1.2.4.3.2.7.3,1,.5.7.5,1.3,1.2,1.7,1.9.4.8.6,1.7.6,2.7,0,1.7-.5,3.1-1.4,4.2-.9,1.1-2.3,1.8-4.1,2.3,1.1,2,2.3,4,3.6,6,1.3,2,2.6,4,3.9,5.9-.5,0-1.1,0-1.6,0h-3.2c-.5,0-1.1,0-1.6,0l-6.3-11.1h-.3ZM225.3,39.8c-.2-.6-.5-1.1-1-1.4-.4-.3-1-.5-1.7-.6-.7,0-1.5-.1-2.5-.1,0,3.2-.1,6.4-.1,9.6.1,0,.3,0,.4,0,.1,0,.3,0,.4,0,1.6,0,2.7-.4,3.6-1.3.8-.8,1.2-2.1,1.2-3.8s-.1-1.9-.3-2.5Z"/>
  </g>
  <rect x="207.3" y="72.9" width="20.1" height="1.2"/>
  <rect x="97.3" y="72.9" width="20.1" height="1.2"/>
  <g>
    <path d="M131.3,69.6h1.4v7.8h-1.4v-7.8Z"/>
    <path d="M137,69.6h1.5l2.4,3.7,2.4-3.7h1.5v7.8h-1.4v-5.6l-2.4,3.7h0l-2.4-3.6v5.5h-1.3v-7.8Z"/>
    <path d="M151.5,69.6h1.3l3.4,7.8h-1.4l-.8-1.9h-3.7l-.8,1.9h-1.4l3.4-7.8ZM153.5,74.3l-1.3-3.1-1.3,3.1h2.7Z"/>
    <path d="M158.9,73.5h0c0-2.2,1.7-4,4-4s2.2.4,3,1.1l-.9,1c-.6-.5-1.2-.8-2.2-.8-1.4,0-2.5,1.2-2.5,2.7h0c0,1.6,1.1,2.8,2.6,2.8s1.4-.2,1.9-.6v-1.4h-2v-1.2h3.3v3.3c-.8.7-1.9,1.2-3.2,1.2-2.4,0-4-1.7-4-4Z"/>
    <path d="M170.2,69.6h1.4v7.8h-1.4v-7.8Z"/>
    <path d="M175.9,69.6h1.3l4.2,5.4v-5.4h1.3v7.8h-1.1l-4.3-5.5v5.5h-1.3v-7.8Z"/>
    <path d="M186.5,73.5h0c0-2.2,1.7-4,4-4s2.2.4,3,1.1l-.9,1c-.6-.5-1.2-.8-2.2-.8-1.4,0-2.5,1.2-2.5,2.7h0c0,1.6,1.1,2.8,2.6,2.8s1.4-.2,1.9-.6v-1.4h-2v-1.2h3.3v3.3c-.8.7-1.9,1.2-3.2,1.2-2.4,0-4-1.7-4-4Z"/>
  </g>
  <g>
    <path d="M40.2,72.4c.1,1.4.2,2.8.2,4.3,0,0,1.3-1.3,2.4-3.6-.9-.1-1.8-.3-2.6-.6ZM56.4,68.4c-.7.7-1.5,1.4-2.4,2-.9.6-1.9,1.1-2.9,1.5-1,.4-2.1.7-3.1,1-1,.2-2.1.3-3.1.4-.7,1.6-1.5,2.9-2.2,3.8h0c5.2,0,9.5-.9,13-2.6,0-.9.3-1.8.5-2.7.3-.9.5-1.8.9-2.7l-.8-.5ZM54.9,33.5c-1-.4-2.1-.7-3.3-1s-2.3-.5-3.6-.7c-1.2-.2-2.4-.3-3.5-.3-3.3,0-6.6.4-9.6,1.3-.5.1-1,.3-1.5.5.1,1.8.5,4.1,1.2,6.5,1.3-1.4,2.8-2.5,4.4-3.2,1.7-.8,3.4-1.1,5.1-1.1s4.3.4,6,1.3c1.7.9,3.3,2.3,5,4.4h.9c0-1.1.2-2.2.5-3.3.2-1.1.6-2.2,1-3.2-.7-.4-1.6-.8-2.6-1.2ZM27.5,65.8c-4.5-4.7-7.6-10.3-7.9-14.6-.2,1.5-.3,3-.3,4.7,0,3,.5,5.8,1.6,8.4,1.1,2.6,2.6,4.8,4.6,6.7,2,1.9,4.5,3.4,7.4,4.4.3.1.6.2.9.3-1-2.7-2.9-6.4-6.3-9.9Z"/>
    <g class="st4">
      <g>
        <g>
          <path class="st3" d="M40.2,76.8c0,0,.1-.1.2-.2,0,0-.1.1-.2.2h0Z"/>
          <path class="st3" d="M42.8,73c-1.1,2.3-2.4,3.6-2.4,3.6,0-1.5,0-2.9-.2-4.3-1.3-12.5-8.4-19.3-8.6-19.5,4.2,7.4,5.6,13.7,6,18.4.2,2.1,0,3.9,0,5.2-.2,2-.6,3.1-.6,3.2h0s-.2-1.4-.9-3.5c-1-3.1-3.1-7.7-7.1-11.8-5-5.1-7.4-10.7-7.4-14.1,0-2.8.2-5.4.9-7.7,2.4-9.1,9.1-13.9,9.1-13.9,0,0-.3,2.2,0,5.4.2,2.2.7,4.8,1.7,7.5,1,2.9,2.6,5.9,5.1,8.6,8.5,9.9,6.7,18.2,4.5,22.7Z"/>
        </g>
        <path class="st2" d="M42.8,73c-1.1,2.3-2.4,3.6-2.4,3.6,0-1.5,0-2.9-.2-4.3-1.3-12.5-8.4-19.3-8.6-19.5,4.2,7.4,5.6,13.7,6,18.4.2,2.1,0,3.9,0,5.2-.2,2-.6,3.1-.6,3.2h0s-.2-1.4-.9-3.5c-1-3.1-3.1-7.7-7.1-11.8-5-5.1-7.4-10.7-7.4-14.1,0-2.8.2-5.4.9-7.7,2.4-9.1,9.1-13.9,9.1-13.9,0,0-.3,2.2,0,5.4.2,2.2.7,4.8,1.7,7.5,1,2.9,2.6,5.9,5.1,8.6,8.5,9.9,6.7,18.2,4.5,22.7Z"/>
        <path class="st1" d="M38.7,83.9s12.8-13.3-2.4-31.1c-9.7-10.9-8.1-25.4-8.1-25.4,0,0-12.4,8.7-11.8,25.4,0,4.1,2.8,10.7,8.7,16.7,8,8.1,9.4,18,9.4,18,0,0,1.9-1.9,4.1-3.6Z"/>
      </g>
    </g>
  </g>
  <rect x="74.7" y="25.3" width="1.2" height="58.9"/>
</svg>